<?xml version="1.0" encoding="UTF-8" standalone="no"?>
<svg
   xmlns:dc="http://purl.org/dc/elements/1.1/"
   xmlns:cc="http://creativecommons.org/ns#"
   xmlns:rdf="http://www.w3.org/1999/02/22-rdf-syntax-ns#"
   xmlns:svg="http://www.w3.org/2000/svg"
   xmlns="http://www.w3.org/2000/svg"
   xmlns:sodipodi="http://sodipodi.sourceforge.net/DTD/sodipodi-0.dtd"
   xmlns:inkscape="http://www.inkscape.org/namespaces/inkscape"
   version="1.1"
   x="0px"
   y="0px"
   viewBox="0 0 719.99999 720"
   xml:space="preserve"
   id="svg2"
   inkscape:version="0.91 r13725"
   sodipodi:docname="developer.svg"
   width="720"
   height="720"
   inkscape:export-filename="/home/martin/Projekte/GitHub/Scribus/scribus-webpage/mockup/raw/developer.png"
   inkscape:export-xdpi="90"
   inkscape:export-ydpi="90"><metadata
     id="metadata38"><rdf:RDF><cc:Work
         rdf:about=""><dc:format>image/svg+xml</dc:format><dc:type
           rdf:resource="http://purl.org/dc/dcmitype/StillImage" /><dc:title /></cc:Work></rdf:RDF></metadata><defs
     id="defs36" /><sodipodi:namedview
     pagecolor="#ffffff"
     bordercolor="#666666"
     borderopacity="1"
     objecttolerance="10"
     gridtolerance="10"
     guidetolerance="10"
     inkscape:pageopacity="0"
     inkscape:pageshadow="2"
     inkscape:window-width="1920"
     inkscape:window-height="1051"
     id="namedview34"
     showgrid="false"
     inkscape:zoom="0.62803372"
     inkscape:cx="-3.6718929"
     inkscape:cy="352.99098"
     inkscape:window-x="0"
     inkscape:window-y="0"
     inkscape:window-maximized="1"
     inkscape:current-layer="svg2" /><rect
     style="opacity:1;fill:#b7c4c8;fill-opacity:1;stroke:none;stroke-width:1;stroke-linecap:square;stroke-linejoin:miter;stroke-miterlimit:1.89999998;stroke-dasharray:none;stroke-dashoffset:0;stroke-opacity:1"
     id="rect4182"
     width="720"
     height="720"
     x="0"
     y="-7.1054274e-15" /><g
     id="g5"
     style="display:none"
     transform="translate(0,-31.552002)"><polygon
       id="polygon7"
       points="336.037,169.268 328.41,181.425 330.63,234.553 335.668,233.122 340.469,201.569 345.771,201.569 347.707,191.998 348.174,189.029 351.451,186.293 356.264,184.923 353.444,171.721 370.081,180.481 365.642,166.166 374.525,173.572 375.348,159.75 387.242,172.419 392.905,162.877 407.763,171.432 427.37,185.818 439.333,193.901 440.038,219.2 441.266,236.141 443.792,186.733 429.902,162.857 392.25,141.69 388.149,148.349 369.103,138.992 368.439,151.523 358.332,142.059 355.414,152.394 339.311,142.059 "
       style="display:inline;fill:#676766" /><polygon
       id="polygon9"
       points="350.582,185.503 347.31,188.241 345.771,201.569 347.699,198.871 350.27,189.674 357.65,186.636 356.264,179.166 372.845,186.201 372.652,174.627 397.045,180.124 399.664,173.077 403.646,178.178 405.592,172.914 412.039,179.344 427.37,185.818 439.333,193.901 424.26,181 409.833,170.126 391.635,159.914 386.853,170.944 374.198,157.119 372.6,170.674 363.336,162.779 367.99,176.194 351.355,167.433 355.4,184.136 "
       style="display:inline;fill:#676766" /></g><g
     id="Ebene_1"
     transform="translate(0,-31.552002)" /><flowRoot
     xml:space="preserve"
     id="flowRoot4184"
     style="font-style:normal;font-variant:normal;font-weight:normal;font-stretch:normal;font-size:180px;line-height:125%;font-family:Roboto;-inkscape-font-specification:Roboto;letter-spacing:0px;word-spacing:0px;fill:#dbe2e3;fill-opacity:1;stroke:none;stroke-width:1px;stroke-linecap:butt;stroke-linejoin:miter;stroke-opacity:1;"
     transform="translate(-25.476339,-84.390373)"><flowRegion
       id="flowRegion4186"><rect
         id="rect4188"
         width="189.48026"
         height="272.27835"
         x="46.175865"
         y="205.69641"
         style="font-style:normal;font-variant:normal;font-weight:normal;font-stretch:normal;font-size:180px;font-family:Roboto;-inkscape-font-specification:Roboto;fill:#dbe2e3;" /></flowRegion><flowPara
       id="flowPara4190"
       style="font-style:normal;font-variant:normal;font-weight:normal;font-stretch:normal;font-size:180px;font-family:Roboto;-inkscape-font-specification:Roboto;fill:#dbe2e3;">1</flowPara></flowRoot><flowRoot
     xml:space="preserve"
     id="flowRoot4184-8"
     style="font-style:normal;font-variant:normal;font-weight:normal;font-stretch:normal;font-size:180px;line-height:125%;font-family:Roboto;-inkscape-font-specification:Roboto;letter-spacing:0px;word-spacing:0px;fill:#dbe2e3;fill-opacity:1;stroke:none;stroke-width:1px;stroke-linecap:butt;stroke-linejoin:miter;stroke-opacity:1;"
     transform="translate(124.31116,-165.73628)"><flowRegion
       id="flowRegion4186-9"><rect
         id="rect4188-2"
         width="189.48026"
         height="272.27835"
         x="46.175865"
         y="205.69641"
         style="font-style:normal;font-variant:normal;font-weight:normal;font-stretch:normal;font-size:180px;font-family:Roboto;-inkscape-font-specification:Roboto;fill:#dbe2e3;" /></flowRegion><flowPara
       id="flowPara4190-2"
       style="font-size:180px;fill:#dbe2e3;">0</flowPara></flowRoot><flowRoot
     xml:space="preserve"
     id="flowRoot4184-3"
     style="font-style:normal;font-variant:normal;font-weight:normal;font-stretch:normal;font-size:180px;line-height:125%;font-family:Roboto;-inkscape-font-specification:Roboto;letter-spacing:0px;word-spacing:0px;fill:#dbe2e3;fill-opacity:1;stroke:none;stroke-width:1px;stroke-linecap:butt;stroke-linejoin:miter;stroke-opacity:1;"
     transform="translate(93.35122,69.320468)"><flowRegion
       id="flowRegion4186-1"><rect
         id="rect4188-8"
         width="189.48026"
         height="272.27835"
         x="46.175865"
         y="205.69641"
         style="font-style:normal;font-variant:normal;font-weight:normal;font-stretch:normal;font-size:180px;font-family:Roboto;-inkscape-font-specification:Roboto;fill:#dbe2e3;" /></flowRegion><flowPara
       id="flowPara4190-3"
       style="font-size:180px;fill:#dbe2e3;">1</flowPara></flowRoot><flowRoot
     xml:space="preserve"
     id="flowRoot4184-5"
     style="font-style:normal;font-variant:normal;font-weight:normal;font-stretch:normal;font-size:180px;line-height:125%;font-family:Roboto;-inkscape-font-specification:Roboto;letter-spacing:0px;word-spacing:0px;fill:#dbe2e3;fill-opacity:1;stroke:none;stroke-width:1px;stroke-linecap:butt;stroke-linejoin:miter;stroke-opacity:1;"
     transform="translate(540.77941,-8.7008248)"><flowRegion
       id="flowRegion4186-17"><rect
         id="rect4188-5"
         width="189.48026"
         height="272.27835"
         x="46.175865"
         y="205.69641"
         style="font-style:normal;font-variant:normal;font-weight:normal;font-stretch:normal;font-size:180px;font-family:Roboto;-inkscape-font-specification:Roboto;fill:#dbe2e3;" /></flowRegion><flowPara
       id="flowPara4190-7"
       style="font-size:180px;fill:#dbe2e3;">1</flowPara></flowRoot><flowRoot
     xml:space="preserve"
     id="flowRoot4184-8-1"
     style="font-style:normal;font-variant:normal;font-weight:normal;font-stretch:normal;font-size:180px;line-height:125%;font-family:Roboto;-inkscape-font-specification:Roboto;letter-spacing:0px;word-spacing:0px;fill:#dbe2e3;fill-opacity:1;stroke:none;stroke-width:1px;stroke-linecap:butt;stroke-linejoin:miter;stroke-opacity:1;"
     transform="translate(459.6876,-214.24388)"><flowRegion
       id="flowRegion4186-9-6"><rect
         id="rect4188-2-9"
         width="189.48026"
         height="272.27835"
         x="46.175865"
         y="205.69641"
         style="font-style:normal;font-variant:normal;font-weight:normal;font-stretch:normal;font-size:180px;font-family:Roboto;-inkscape-font-specification:Roboto;fill:#dbe2e3;" /></flowRegion><flowPara
       id="flowPara4190-2-8"
       style="font-size:180px;fill:#dbe2e3;">0</flowPara></flowRoot><flowRoot
     xml:space="preserve"
     id="flowRoot4184-5-1"
     style="font-style:normal;font-variant:normal;font-weight:normal;font-stretch:normal;font-size:180px;line-height:125%;font-family:Roboto;-inkscape-font-specification:Roboto;letter-spacing:0px;word-spacing:0px;fill:#dbe2e3;fill-opacity:1;stroke:none;stroke-width:1px;stroke-linecap:butt;stroke-linejoin:miter;stroke-opacity:1;"
     transform="translate(281.946,-243.75758)"><flowRegion
       id="flowRegion4186-17-3"><rect
         id="rect4188-5-3"
         width="189.48026"
         height="272.27835"
         x="46.175865"
         y="205.69641"
         style="font-style:normal;font-variant:normal;font-weight:normal;font-stretch:normal;font-size:180px;font-family:Roboto;-inkscape-font-specification:Roboto;fill:#dbe2e3;" /></flowRegion><flowPara
       id="flowPara4190-7-3"
       style="font-size:180px;fill:#dbe2e3;">1</flowPara></flowRoot><flowRoot
     xml:space="preserve"
     id="flowRoot4184-8-1-7"
     style="font-style:normal;font-variant:normal;font-weight:normal;font-stretch:normal;font-size:180px;line-height:125%;font-family:Roboto;-inkscape-font-specification:Roboto;letter-spacing:0px;word-spacing:0px;fill:#dbe2e3;fill-opacity:1;stroke:none;stroke-width:1px;stroke-linecap:butt;stroke-linejoin:miter;stroke-opacity:1;"
     transform="translate(466.81927,160.67931)"><flowRegion
       id="flowRegion4186-9-6-9"><rect
         id="rect4188-2-9-8"
         width="189.48026"
         height="272.27835"
         x="46.175865"
         y="205.69641"
         style="font-style:normal;font-variant:normal;font-weight:normal;font-stretch:normal;font-size:180px;font-family:Roboto;-inkscape-font-specification:Roboto;fill:#dbe2e3;" /></flowRegion><flowPara
       id="flowPara4190-2-8-6"
       style="font-size:180px;fill:#dbe2e3;">0</flowPara></flowRoot><flowRoot
     xml:space="preserve"
     id="flowRoot4184-8-1-70"
     style="font-style:normal;font-variant:normal;font-weight:normal;font-stretch:normal;font-size:180px;line-height:125%;font-family:Roboto;-inkscape-font-specification:Roboto;letter-spacing:0px;word-spacing:0px;fill:#dbe2e3;fill-opacity:1;stroke:none;stroke-width:1px;stroke-linecap:butt;stroke-linejoin:miter;stroke-opacity:1;"
     transform="translate(-26.784791,198.89382)"><flowRegion
       id="flowRegion4186-9-6-4"><rect
         id="rect4188-2-9-84"
         width="189.48026"
         height="272.27835"
         x="46.175865"
         y="205.69641"
         style="font-style:normal;font-variant:normal;font-weight:normal;font-stretch:normal;font-size:180px;font-family:Roboto;-inkscape-font-specification:Roboto;fill:#dbe2e3;" /></flowRegion><flowPara
       id="flowPara4190-2-8-8"
       style="font-size:180px;fill:#dbe2e3;">0</flowPara></flowRoot><path
     inkscape:connector-curvature="0"
     id="path13"
     d="m 468.76568,534.20904 -0.79443,-62.12721 c 0.13794,-0.61283 0.27238,-1.21781 0.40158,-1.8132 6.32225,-15.77929 12.41141,-31.51843 12.41141,-31.51843 l 1.63163,-31.94532 c 4.57363,-2.06375 9.23631,-4.25234 11.54452,-5.58801 5.40647,-3.13229 17.52455,-59.41221 11.26953,-73.81741 -4.15111,-9.5767 -12.74316,-12.92986 -18.02915,-14.1049 l 5.71726,-112.00549 -0.52555,-0.52903 c 0,0 1.47155,-19.05167 -3.56445,-26.40621 -5.03598,-7.35454 -23.49672,-12.96302 -23.49672,-12.96302 l -18.73976,-25.16394 c 0,0 -23.9433,-24.28707 -36.49304,-28.11726 -12.54974,-3.83019 -32.5916,2.08994 -32.5916,2.08994 l -89.66033,33.66337 c 0,0 -27.52586,6.14346 -42.47255,15.5337 -14.9467,9.39024 -35.63877,51.62041 -35.63877,51.62041 -3.47512,13.20536 11.49726,105.07983 11.49726,105.07983 -3.96603,2.14842 -7.97745,5.63166 -10.43756,11.3026 -6.26027,14.4052 5.85868,70.68512 11.2669,73.81741 2.74208,1.58099 6.24186,4.66228 14.53621,9.37992 l 22.51661,54.32985 -0.01,71.09354 -157.77243,54.01138 c 0,0 -19.460684,3.47509 -33.361167,38.22601 C 54.070631,663.00849 36,719.30498 36,719.30498 L 684.45767,720 c 0,0 -13.20547,-101.47269 -39.61639,-118.84815 C 618.4304,583.77639 468.76567,534.20904 468.76567,534.20904 Z"
     style="fill:#666666;stroke:none;stroke-width:1"
     sodipodi:nodetypes="cccccccccczcczcczccccccccsccsc" /></svg>
