<?xml version="1.0" encoding="UTF-8" standalone="no"?>
<svg
   xmlns:dc="http://purl.org/dc/elements/1.1/"
   xmlns:cc="http://creativecommons.org/ns#"
   xmlns:rdf="http://www.w3.org/1999/02/22-rdf-syntax-ns#"
   xmlns:svg="http://www.w3.org/2000/svg"
   xmlns="http://www.w3.org/2000/svg"
   xmlns:sodipodi="http://sodipodi.sourceforge.net/DTD/sodipodi-0.dtd"
   xmlns:inkscape="http://www.inkscape.org/namespaces/inkscape"
   version="1.1"
   x="0px"
   y="0px"
   viewBox="0 0 719.99999 720"
   xml:space="preserve"
   id="svg2"
   inkscape:version="0.91 r13725"
   sodipodi:docname="forum.svg"
   width="720"
   height="720"
   inkscape:export-filename="/home/martin/Projekte/GitHub/Scribus/scribus-webpage/mockup/raw/forum.png"
   inkscape:export-xdpi="90"
   inkscape:export-ydpi="90"><metadata
     id="metadata38"><rdf:RDF><cc:Work
         rdf:about=""><dc:format>image/svg+xml</dc:format><dc:type
           rdf:resource="http://purl.org/dc/dcmitype/StillImage" /><dc:title /></cc:Work></rdf:RDF></metadata><defs
     id="defs36" /><sodipodi:namedview
     pagecolor="#ffffff"
     bordercolor="#666666"
     borderopacity="1"
     objecttolerance="10"
     gridtolerance="10"
     guidetolerance="10"
     inkscape:pageopacity="0"
     inkscape:pageshadow="2"
     inkscape:window-width="1920"
     inkscape:window-height="973"
     id="namedview34"
     showgrid="false"
     inkscape:zoom="0.8881738"
     inkscape:cx="486.93935"
     inkscape:cy="364.19295"
     inkscape:window-x="1920"
     inkscape:window-y="30"
     inkscape:window-maximized="1"
     inkscape:current-layer="svg2" /><rect
     style="opacity:1;fill:#c8c4b7;fill-opacity:1;stroke:none;stroke-width:1;stroke-linecap:square;stroke-linejoin:miter;stroke-miterlimit:1.89999998;stroke-dasharray:none;stroke-dashoffset:0;stroke-opacity:1"
     id="rect4182"
     width="720"
     height="720"
     x="0"
     y="-7.1054274e-15" /><g
     id="g5"
     style="display:none"
     transform="translate(0,-31.552002)"><polygon
       id="polygon7"
       points="336.037,169.268 328.41,181.425 330.63,234.553 335.668,233.122 340.469,201.569 345.771,201.569 347.707,191.998 348.174,189.029 351.451,186.293 356.264,184.923 353.444,171.721 370.081,180.481 365.642,166.166 374.525,173.572 375.348,159.75 387.242,172.419 392.905,162.877 407.763,171.432 427.37,185.818 439.333,193.901 440.038,219.2 441.266,236.141 443.792,186.733 429.902,162.857 392.25,141.69 388.149,148.349 369.103,138.992 368.439,151.523 358.332,142.059 355.414,152.394 339.311,142.059 "
       style="display:inline;fill:#676766" /><polygon
       id="polygon9"
       points="350.582,185.503 347.31,188.241 345.771,201.569 347.699,198.871 350.27,189.674 357.65,186.636 356.264,179.166 372.845,186.201 372.652,174.627 397.045,180.124 399.664,173.077 403.646,178.178 405.592,172.914 412.039,179.344 427.37,185.818 439.333,193.901 424.26,181 409.833,170.126 391.635,159.914 386.853,170.944 374.198,157.119 372.6,170.674 363.336,162.779 367.99,176.194 351.355,167.433 355.4,184.136 "
       style="display:inline;fill:#676766" /></g><g
     id="Ebene_1"
     transform="translate(0,-31.552002)" /><g
     id="g4270"
     style="fill:#e3e2db"
     transform="translate(19.140398,-9.0072461)"><path
       id="path4217"
       d="m 631.44922,35.654297 c -1.97501,0.0536 -4.10935,1.132218 -6.57227,4.298828 -7.88134,10.133152 -46.16211,3.378284 -46.16211,9.007813 0,5.629528 -24.77001,10.132812 -16.88867,10.132812 7.88134,0 9.00887,11.258096 10.13477,15.761719 1.12591,4.503623 -16.88867,-9.00586 -16.88867,-9.00586 0,0 -16.88944,-0.0015 -13.51172,6.753907 3.37772,6.755435 13.51172,19.140625 13.51172,19.140625 0,0 -5.63115,2.252576 -10.13477,-3.376953 -4.50363,-5.62953 4.50382,9.007051 -12.38477,12.384762 -16.88858,3.37772 9.00873,-4.503564 7.88282,-14.636716 -1.1259,-10.133151 1.12458,-28.14739 -5.63086,-27.021484 -6.75543,1.125906 -11.25782,5.629473 -11.25781,14.636719 0,9.007246 6.75438,18.014578 -1.12696,16.888672 -7.88134,-1.125905 -24.76863,-16.888389 -25.89453,-12.384766 -1.12591,4.503623 1.125,9.005859 1.125,9.005859 0,0 -33.77686,3.37919 -41.6582,7.882813 -7.88134,4.503624 -30.40039,14.636723 -30.40039,14.636723 0,0 -2.25029,-7.88205 -6.75391,-11.25977 -4.50362,-3.377718 23.64334,5.63015 20.26563,-5.628906 -3.37772,-11.259058 -24.76968,-16.888389 -27.02149,-12.384766 -2.25181,4.503623 -10.13422,-13.511916 -32.65234,-1.126953 -22.51811,12.384963 -23.64287,31.526445 -28.14649,32.652345 -4.50363,1.12591 -16.88867,5.6289 -16.88867,5.6289 0,0 -6.75543,14.63596 0,18.01368 5.54298,2.77149 7.29886,4.02105 10.85938,1.89453 l 0.39843,-1.89453 0.25977,1.47656 c 0.60325,-0.40324 1.25832,-0.88947 1.99219,-1.47656 5.62953,-4.50362 9.00872,2.25237 7.88281,9.00781 -1.12591,6.75543 15.76172,-4.50343 15.76172,-12.38477 0,-7.88134 -7.88043,-4.50448 -1.125,-13.51172 6.75544,-9.00724 27.02134,-24.769098 24.76953,-18.01367 -2.25181,6.75544 -16.88854,10.13324 -14.63672,16.88867 2.25181,6.75544 14.63533,9.00677 23.64258,7.88086 9.00724,-1.12591 -18.01367,7.88086 -18.01367,7.88086 0,0 -3.3771,14.63792 -5.62891,18.01563 -2.25182,3.37772 -31.52539,3.37695 -31.52539,3.37695 l -3.11914,-17.66406 c -0.2273,0.15194 -0.44506,0.29067 -0.6582,0.41797 l -4.10352,19.49805 -13.51172,7.88085 c 0,0 -11.25914,11.25887 -16.88867,12.38477 -5.62953,1.12591 4.50391,11.25977 4.50391,11.25977 l -3.37891,11.25976 -21.39062,-5.63086 -2.25196,19.14063 c 0,0 13.51019,11.26039 20.26563,5.63086 6.75543,-5.62953 9.00746,-13.51214 19.14062,-20.26758 10.13315,-6.75543 20.26563,-5.62891 20.26563,-5.62891 l 6.75586,10.13281 7.88086,4.50391 1.12695,10.13281 6.75586,-12.38476 -15.76367,-13.50977 c 0,0 1.12514,-9.00858 3.37695,-5.63086 2.25181,3.37772 20.26758,20.26758 20.26758,20.26758 l 6.75586,10.13281 3.37695,-13.51172 14.63672,-2.25195 10.13281,-19.14062 9.00781,9.00781 11.25977,-11.25977 -2.25195,12.38672 c 0,0 7.87996,2.25029 9.00586,6.75391 1.12591,4.50363 -14.6361,10.13449 -20.26563,5.63086 -5.62953,-4.50362 -20.26562,4.50195 -20.26562,4.50195 0,0 -6.75634,11.25977 1.125,11.25977 l 20.26562,0 c 0,0 14.63706,12.38505 4.50391,16.88867 -10.13316,4.50362 -28.14649,2.25195 -28.14649,2.25195 l -19.14062,-6.75586 -4.50391,9.00781 c 0,0 -30.39934,-20.26562 -29.27344,-20.26562 0,0 -31.52491,-5.6303 -39.40625,3.37695 -7.88134,9.00724 -52.91907,39.40614 -39.4082,68.67969 13.51087,29.27355 21.39405,28.14753 29.27539,29.27344 7.88134,1.1259 25.89405,-3.37696 33.77539,-3.37696 7.88134,0 22.51926,4.50252 18.01563,13.50977 -4.50362,9.00725 15.76157,20.26647 13.50976,33.77734 -2.25181,13.51087 -9.00738,27.02234 -2.25195,40.53321 6.75544,13.51087 15.7629,25.89523 19.14062,37.15429 3.37772,11.25906 38.2823,-6.75462 39.40821,-18.01367 1.12591,-11.25906 13.50948,-20.2662 9.00586,-29.27344 -4.50363,-9.00725 9.00704,-5.63023 12.38476,-11.25976 3.37772,-5.62953 -5.62876,-18.01347 -3.37695,-30.39844 2.25181,-12.38496 40.53202,-34.90452 37.1543,-54.04492 -3.37771,-19.1404 -16.88868,4.50391 -16.88868,4.50391 0,0 -34.90143,-37.15334 -36.02734,-52.91602 -1.1259,-15.76268 33.77539,42.7832 33.77539,42.7832 0,0 40.53349,-18.01423 45.03711,-27.02148 4.50363,-9.00724 -15.76367,-9.00781 -15.76367,-9.00781 0,0 -13.509,-5.62829 -16.88672,-11.25782 -3.37772,-5.62953 12.38428,7.87996 20.26562,9.00586 7.88135,1.12591 28.14783,-3.37785 33.77735,-2.25195 5.62953,1.12591 9.00614,12.38505 13.50976,16.88867 4.50363,4.50362 19.14063,37.15625 19.14063,37.15625 0,0 12.38462,-12.38623 10.13281,-20.26758 -2.25181,-7.88134 14.63743,-21.39062 25.89649,-21.39062 11.25905,0 30.39933,20.26577 29.27343,22.51758 -1.12591,2.25181 -1.125,15.76172 -1.125,15.76172 l 13.50977,24.77148 3.37891,-12.38672 c 0,0 -10.13477,-5.62961 -10.13477,-16.88867 0,-11.25906 7.88205,-3.37653 11.25977,3.37891 3.37772,6.75543 14.63671,-9.00782 14.63671,-9.00782 0,0 -16.88838,-15.76276 -12.38476,-16.88867 4.50363,-1.1259 14.63609,-12.38372 20.26562,-11.25781 5.62953,1.1259 41.65931,-3.37921 28.14844,-39.4082 -13.51087,-36.02898 7.88086,-18.01368 7.88086,-18.01368 0,0 10.13296,9.00719 12.38477,14.63672 2.25182,5.62953 9.00767,-2.2516 6.75586,-12.38476 -2.25181,-10.13315 7.88114,-19.14049 12.38476,-16.88868 4.50363,2.25182 21.39258,-16.88952 21.39258,-30.40039 0,-13.51087 -18.01367,-12.38476 -18.01367,-12.38476 0,0 11.25747,-20.26563 21.39062,-20.26563 10.13315,0 23.64391,-1.12695 29.27344,-1.12695 5.62953,0 12.38624,-18.01338 20.26758,-13.50977 7.88134,4.50362 18.01367,1.125 18.01367,1.125 0,0 7.88147,-2.25153 2.25195,4.50391 -5.62953,6.75543 -24.76953,18.01396 -24.76953,22.51758 0,4.50363 -5.63057,19.14062 -1.12695,19.14062 4.50363,0 22.51953,-27.02148 22.51953,-27.02148 0,0 -9.00787,-10.13281 5.62891,-10.13281 14.63677,0 41.6582,-6.75614 41.6582,-11.25977 0,-4.50362 -4.50391,-12.38476 -4.50391,-12.38476 0,0 5.63038,-4.502716 13.51172,-1.125 7.88134,3.37772 25.89649,-4.50391 25.89649,-4.50391 0,0 -56.29702,-28.147107 -58.54883,-22.517578 -2.25181,5.629528 -18.01395,5.629953 -22.51758,6.755859 -4.50362,1.125906 -10.1331,-4.504048 -14.63672,-6.755859 -4.50362,-2.251812 -7.88128,-0.001 -14.63672,-1.126953 -6.75543,-1.125906 -12.38443,-9.006001 -22.51758,-11.257813 -10.13315,-2.251811 -15.762,-4.503482 -20.26562,2.251953 -4.50363,6.755434 -25.89677,12.383577 -30.40039,9.00586 -4.50362,-3.377717 1.12653,-9.00719 -5.62891,-14.636719 -6.75543,-5.629529 -6.75628,-1.125 -13.51172,-1.125 -6.75543,0 -40.53195,-1.126529 -51.79101,5.628906 -11.25906,6.755435 18.01367,-20.265625 18.01367,-20.265625 0,0 -10.13323,-7.882671 -16.88867,-5.630859 -4.64436,1.54812 -8.22334,-3.289798 -12.56836,-3.171875 z m -158.56836,145.037113 6.75586,2.25195 -7.88281,3.37695 10.13281,18.01563 -7.88086,-2.25196 7.88086,15.76172 c 0,0 -9.00538,2.25286 -16.88672,1.12696 -7.88134,-1.12591 2.25104,-7.88205 3.37695,-11.25977 1.1259,-3.37772 -9.00781,-13.51109 -9.00781,-19.14062 0,-5.62953 13.51172,-7.88086 13.51172,-7.88086 z"
       style="fill:#e3e2db;fill-rule:evenodd;stroke:none;stroke-width:1px;stroke-linecap:butt;stroke-linejoin:miter;stroke-opacity:1"
       inkscape:connector-curvature="0" /><path
       inkscape:connector-curvature="0"
       id="path4221"
       d="m 307.37227,134.52901 c 0,0 6.75544,16.88858 13.51087,23.64402 6.75544,6.75543 -20.2663,12.38496 -20.2663,12.38496 l 7.88134,-15.76268 -12.38497,-16.88859 10.13316,-9.00724 z"
       style="fill:#e3e2db;fill-rule:evenodd;stroke:none;stroke-width:1px;stroke-linecap:butt;stroke-linejoin:miter;stroke-opacity:1" /><path
       inkscape:connector-curvature="0"
       id="path4223"
       d="m 289.35778,154.79531 6.75543,-9.00725 1.12591,12.38497 -10.13315,6.75543 z"
       style="fill:#e3e2db;fill-rule:evenodd;stroke:none;stroke-width:1px;stroke-linecap:butt;stroke-linejoin:miter;stroke-opacity:1" /><path
       inkscape:connector-curvature="0"
       id="path4225"
       d="m 476.25814,71.478284 11.25905,4.503623 c 0,0 -9.00724,-14.636775 2.25181,-21.39221 11.25906,-6.755434 40.53261,-13.510869 40.53261,-13.510869 L 514.53893,37.701111 481.88766,51.21198 c 0,0 -14.63677,15.762681 -5.62952,20.266304 z"
       style="fill:#e3e2db;fill-rule:evenodd;stroke:none;stroke-width:1px;stroke-linecap:butt;stroke-linejoin:miter;stroke-opacity:1" /><path
       inkscape:connector-curvature="0"
       id="path4227"
       d="m 665.4103,406.9982 6.75544,40.53261 c 0,0 37.15489,-27.02174 66.42844,-1.12591 29.27355,25.89583 41.65851,-5.62953 41.65851,-5.62953 0,0 10.13315,-25.89583 -12.38496,-45.03623 -22.51812,-19.1404 -15.76268,-24.76992 -15.76268,-24.76992 l -4.50363,21.3922 -21.39221,-13.51086 9.00725,-4.50363 -22.51812,-1.1259 -5.62952,9.00724 -9.00725,-2.25181 c 0,0 -7.88134,20.2663 -32.65127,27.02174 z"
       style="fill:#e3e2db;fill-rule:evenodd;stroke:none;stroke-width:1px;stroke-linecap:butt;stroke-linejoin:miter;stroke-opacity:1" /><path
       inkscape:connector-curvature="0"
       id="path4229"
       d="m 716.07606,337.19204 c 0,0 23.64402,-1.1259 31.52536,4.50363 7.88134,5.62952 28.14765,22.51811 28.14765,22.51811 l -19.1404,-6.75543 -13.51087,10.13315 -11.25906,-15.76268 z"
       style="fill:#e3e2db;fill-rule:evenodd;stroke:none;stroke-width:1px;stroke-linecap:butt;stroke-linejoin:miter;stroke-opacity:1" /><path
       inkscape:connector-curvature="0"
       id="path4231"
       d="m 650.77353,334.94023 23.64402,-18.01449 1.1259,14.63677 -5.62952,14.63678 c 0,0 -20.26631,-6.75544 -19.1404,-11.25906 z"
       style="fill:#e3e2db;fill-rule:evenodd;stroke:none;stroke-width:1px;stroke-linecap:butt;stroke-linejoin:miter;stroke-opacity:1" /><path
       inkscape:connector-curvature="0"
       id="path4233"
       d="m 605.7373,318.05164 c 0,0 27.02174,14.63678 33.77717,27.02174 6.75543,12.38497 59.67301,13.51087 59.67301,13.51087 l -43.91033,3.37772 c 0,0 -27.02174,-5.62953 -30.39945,-14.63678 -3.37772,-9.00724 -19.1404,-29.27355 -19.1404,-29.27355 z"
       style="fill:#e3e2db;fill-rule:evenodd;stroke:none;stroke-width:1px;stroke-linecap:butt;stroke-linejoin:miter;stroke-opacity:1" /><path
       inkscape:connector-curvature="0"
       id="path4235"
       d="m 817.40758,483.55979 27.02174,-19.1404 3.37772,2.25181 -13.51087,22.51812 z"
       style="fill:#e3e2db;fill-rule:evenodd;stroke:none;stroke-width:1px;stroke-linecap:butt;stroke-linejoin:miter;stroke-opacity:1" /><path
       inkscape:connector-curvature="0"
       id="path4237"
       d="m 845.55522,447.53081 4.50363,20.2663 6.75543,-12.38496 z"
       style="fill:#e3e2db;fill-rule:evenodd;stroke:none;stroke-width:1px;stroke-linecap:butt;stroke-linejoin:miter;stroke-opacity:1" /><path
       inkscape:connector-curvature="0"
       id="path4239"
       d="m 713.82425,235.86052 c 0,0 21.39221,-15.76268 28.14764,-13.51086 6.75544,2.25181 6.75544,-16.88859 6.75544,-16.88859 l 11.25906,-11.25906 -12.38497,-7.88134 -5.62953,22.51812 c 0,0 -2.25181,13.51087 -7.88134,11.25905 -5.62952,-2.25181 -20.2663,15.76268 -20.2663,15.76268 z"
       style="fill:#e3e2db;fill-rule:evenodd;stroke:none;stroke-width:1px;stroke-linecap:butt;stroke-linejoin:miter;stroke-opacity:1" /><path
       inkscape:connector-curvature="0"
       id="path4241"
       d="m 750.97914,181.81705 -1.12591,-25.89583 4.50363,18.01449 z"
       style="fill:#e3e2db;fill-rule:evenodd;stroke:none;stroke-width:1px;stroke-linecap:butt;stroke-linejoin:miter;stroke-opacity:1" /><path
       inkscape:connector-curvature="0"
       id="path4243"
       d="m 82.19112,323.68117 c 0,0 -4.503623,9.00725 -7.88134,15.76268 -3.377717,6.75544 2.251812,23.64402 2.251812,23.64402 0,0 23.644018,16.88859 24.769928,30.39946 1.1259,13.51087 -11.259059,83.31703 -11.259059,83.31703 0,0 -10.133152,29.27355 -1.125906,37.15489 9.007246,7.88134 29.273545,10.13315 29.273545,10.13315 0,0 -18.01449,-11.25906 -14.63677,-18.01449 3.37772,-6.75544 6.75543,-22.51812 13.51087,-32.65127 6.75543,-10.13315 24.76993,-19.1404 24.76993,-19.1404 l -3.37772,-10.13315 15.76268,1.12591 14.63677,-29.27355 c 0,0 9.00725,-14.63678 16.88859,-12.38497 7.88134,2.25181 13.51087,-29.27355 13.51087,-29.27355 l 13.51087,-20.2663 -23.64402,-9.00725 -25.89584,-10.13315 c 0,0 -7.88134,-21.39221 -15.76268,-19.1404 -7.88134,2.25181 -24.76992,-10.13315 -24.76992,-10.13315 0,0 -27.021741,-12.38496 -32.651269,-3.37772 -5.629529,9.00725 -15.762681,6.75544 -15.762681,6.75544 0,0 -14.636775,-6.75544 -12.384963,-16.88859 2.251811,-10.13315 -15.762681,-9.00724 -15.762681,-9.00724 l 5.629529,-14.63678 -13.510869,0 c 0,0 2.251811,12.38496 -6.755435,12.38496 -9.007246,0 -20.266303,-34.90307 -12.384963,-34.90307 7.88134,0 9.007246,-4.50363 9.007246,-4.50363 0,0 30.399455,-3.37771 31.525361,1.12591 1.125906,4.50362 9.007246,13.51087 9.007246,13.51087 0,0 5.629529,-12.38497 1.125906,-20.26631 -4.503623,-7.88134 13.510869,-11.25905 13.510869,-11.25905 l 15.762681,-24.76993 c 0,0 13.510873,-15.76268 18.014493,-13.51087 4.50362,2.25181 14.63677,-7.88134 14.63677,-7.88134 0,0 -19.14039,-4.50362 -27.02173,2.25181 -7.881345,6.75544 5.62952,-11.25906 21.3922,-12.38496 15.76269,-1.12591 7.88135,11.25906 12.38497,11.25906 4.50362,0 14.63677,4.50362 15.76268,0 1.1259,-4.50363 -9.00725,-10.13316 -10.13315,-14.63678 -1.12591,-4.50362 -24.76993,-21.39221 -28.14765,-38.28079 -3.37771,-16.88859 -4.50362,12.38496 -4.50362,12.38496 0,0 -4.50362,-13.51087 -10.13315,-14.63678 -5.629531,-1.1259 -22.518117,-5.62952 -22.518117,-5.62952 0,0 -2.251811,10.13315 0,14.63677 2.251812,4.50362 11.259058,6.75543 3.377717,15.76268 -7.88134,9.00725 2.251812,36.02899 -7.88134,20.2663 C 64.176628,153.6694 36.028984,153.6694 31.525361,143.53625 c -4.503623,-10.13315 3.377717,-32.65126 11.259058,-33.77717 7.88134,-1.12591 19.140398,13.51087 20.266303,5.62953 1.125906,-7.88134 -9.007246,-20.266306 -9.007246,-20.266306 0,0 10.133152,-1.125905 11.259058,-6.755434 C 66.42844,82.737341 59.673005,74.856001 57.421194,81.611435 55.169382,88.36687 49.539853,96.24821 49.539853,96.24821 L 29.27355,73.730095 c 0,0 -11.259058,-2.251811 -7.881341,4.503623 3.377718,6.755435 5.629529,15.762681 5.629529,15.762681 L 14.636775,92.870493 c 0,0 -15.7626808,-7.88134 -22.5181153,-7.88134 -6.7554347,0 -4.5036227,10.133151 -4.5036227,10.133151 l -20.266304,-9.007246 c 0,0 -27.021738,-7.88134 -31.525361,-5.629528 -4.503623,2.251811 -15.762681,-6.755435 -15.762681,-6.755435 0,0 -18.014492,10.133152 -23.644021,11.259058 -5.62953,1.125905 -63.05072,-11.259058 -63.05072,-11.259058 0,0 -21.39221,0 -22.51812,9.007246 -1.1259,9.007246 14.63678,15.762681 14.63678,15.762681 l -21.39221,2.251808 5.62953,6.75544 14.63677,0 -1.1259,3.37772 -15.76268,11.25905 24.76992,13.51087 c 0,0 -11.25906,23.64402 -25.89583,23.64402 -14.63678,0 10.13315,10.13315 38.2808,-23.64402 28.14764,-33.77717 51.79166,-6.75543 57.421189,1.12591 5.629529,7.88134 41.658513,33.77717 39.406702,43.91032 -2.251812,10.13315 -7.881341,34.90308 1.125905,39.4067 9.007246,4.50363 31.525362,22.51812 40.532608,33.77718 9.0072457,11.25905 7.8813399,34.90307 24.7699263,32.65126 16.8885867,-2.25181 24.7699267,-1.1259 32.6512667,4.50363 7.881341,5.62953 19.140398,11.25905 22.518115,20.2663 3.377718,9.00725 21.39221,-3.37772 21.39221,16.88859 0,20.2663 -2.251812,-4.50363 -2.251812,-4.50363 z"
       style="fill:#e3e2db;fill-rule:evenodd;stroke:none;stroke-width:1px;stroke-linecap:butt;stroke-linejoin:miter;stroke-opacity:1" /><path
       inkscape:connector-curvature="0"
       id="path4245"
       d="m 104.70924,45.582451 c 11.25905,0 16.88858,-11.259057 28.14764,1.125906 11.25906,12.384963 23.64402,23.644021 23.64402,31.525361 0,7.88134 -6.75543,21.39221 3.37772,30.399452 10.13315,9.00725 22.51811,31.52536 27.02174,21.39221 4.50362,-10.13315 -1.12591,-27.02174 12.38496,-30.399452 13.51087,-3.377718 23.64402,-4.503624 38.28079,-13.51087 14.63678,-9.007246 10.13316,-13.510869 14.63678,-24.769926 4.50362,-11.259058 1.12591,-22.518115 1.12591,-27.021738 0,-4.503623 20.2663,-12.384964 22.51811,-19.140398 2.25181,-6.7554349 -24.76993,-3.377718 -24.76993,-3.377718 L 228.55887,1.6721266 249.95108,-0.57968492 c 0,0 -30.39946,-12.38496308 -50.66576,-7.88134028 -20.2663,4.503623 -24.76993,12.3849633 -24.76993,12.3849633 0,0 -23.64402,-11.2590576 -37.15489,-3.37771727 C 123.84963,8.4275611 102.45742,21.93843 101.33152,27.567959 c -1.12591,5.629529 3.37772,18.014492 3.37772,18.014492 z"
       style="fill:#e3e2db;fill-rule:evenodd;stroke:none;stroke-width:1px;stroke-linecap:butt;stroke-linejoin:miter;stroke-opacity:1" /><path
       inkscape:connector-curvature="0"
       id="path4247"
       d="m 25.895832,10.679373 c 0,0 47.288042,-15.762681 70.932063,-15.762681 23.644025,0 24.769925,4.50362308 24.769925,4.50362308 0,0 -28.147642,22.51811492 -33.777171,25.89583292 C 82.19112,28.693865 67.554345,52.337886 67.554345,52.337886 L 34.903078,46.708357 Z"
       style="fill:#e3e2db;fill-rule:evenodd;stroke:none;stroke-width:1px;stroke-linecap:butt;stroke-linejoin:miter;stroke-opacity:1" /><path
       inkscape:connector-curvature="0"
       id="path4249"
       d="m 47.288042,57.967414 c 0,4.503624 -2.251812,24.769927 -2.251812,24.769927 l 13.510869,-9.007246 24.769927,4.503623 12.384963,18.014492 -20.266303,11.25906 42.784414,10.13315 c 0,0 16.88859,-28.147644 12.38497,-28.147644 -4.50363,0 -58.547102,-31.525362 -58.547102,-31.525362 z"
       style="fill:#e3e2db;fill-rule:evenodd;stroke:none;stroke-width:1px;stroke-linecap:butt;stroke-linejoin:miter;stroke-opacity:1" /><path
       inkscape:connector-curvature="0"
       id="path4251"
       d="m -63.050722,63.596943 3.377717,-12.384963 37.15489,15.762681 27.021738,11.259057 -28.147644,5.629529 -22.518115,-18.014492 -11.259058,9.007246 z"
       style="fill:#e3e2db;fill-rule:evenodd;stroke:none;stroke-width:1px;stroke-linecap:butt;stroke-linejoin:miter;stroke-opacity:1" /><path
       inkscape:connector-curvature="0"
       id="path4253"
       d="M -56.295288,41.078828 -30.399455,55.715603 -3.3777173,44.456545 -25.895832,45.582451 -41.658513,35.449299 Z"
       style="fill:#e3e2db;fill-rule:evenodd;stroke:none;stroke-width:1px;stroke-linecap:butt;stroke-linejoin:miter;stroke-opacity:1" /><path
       inkscape:connector-curvature="0"
       id="path4255"
       d="m 6.7554345,61.345132 9.0072465,11.259057 9.007246,-9.007246 z"
       style="fill:#e3e2db;fill-rule:evenodd;stroke:none;stroke-width:1px;stroke-linecap:butt;stroke-linejoin:miter;stroke-opacity:1" /><path
       inkscape:connector-curvature="0"
       id="path4257"
       d="M -9.0072461,38.827017 21.392209,51.21198 14.636775,38.827017 -13.510869,36.575205 c 0,0 1.125906,-13.510869 6.7554345,-10.133152 5.6295287,3.377718 18.0144925,6.755435 18.0144925,6.755435 l -15.762681,6.755434 z"
       style="fill:#e3e2db;fill-rule:evenodd;stroke:none;stroke-width:1px;stroke-linecap:butt;stroke-linejoin:miter;stroke-opacity:1" /><path
       inkscape:connector-curvature="0"
       id="path4259"
       d="m 244.32155,103.00364 18.01449,7.88135 13.51087,-5.62953 -11.25906,-10.133156 z"
       style="fill:#e3e2db;fill-rule:evenodd;stroke:none;stroke-width:1px;stroke-linecap:butt;stroke-linejoin:miter;stroke-opacity:1" /><path
       inkscape:connector-curvature="0"
       id="path4261"
       d="m 683.42479,285.40038 9.00725,30.39945 13.51087,0 z"
       style="fill:#e3e2db;fill-rule:evenodd;stroke:none;stroke-width:1px;stroke-linecap:butt;stroke-linejoin:miter;stroke-opacity:1" /><path
       inkscape:connector-curvature="0"
       id="path4263"
       d="m 453.74002,385.60599 1.12591,25.89583 6.75543,1.12591 9.00725,-37.15489 z"
       style="fill:#e3e2db;fill-rule:evenodd;stroke:none;stroke-width:1px;stroke-linecap:butt;stroke-linejoin:miter;stroke-opacity:1" /><path
       inkscape:connector-curvature="0"
       id="path4265"
       d="m 351.2826,21.93843 14.63677,19.140398 9.00725,-13.510869 14.63677,7.88134 2.25181,-20.266303 z"
       style="fill:#e3e2db;fill-rule:evenodd;stroke:none;stroke-width:1px;stroke-linecap:butt;stroke-linejoin:miter;stroke-opacity:1" /><path
       inkscape:connector-curvature="0"
       id="path4267"
       d="M 597.85596,23.064336 636.13675,32.071582 601.23367,9.5534669 Z"
       style="fill:#e3e2db;fill-rule:evenodd;stroke:none;stroke-width:1px;stroke-linecap:butt;stroke-linejoin:miter;stroke-opacity:1" /></g><path
     inkscape:connector-curvature="0"
     id="path13-3"
     d="m 112.26063,600.99131 0.50887,-39.79568 c -0.0884,-0.39254 -0.17448,-0.78007 -0.25723,-1.16144 -4.04973,-10.10746 -7.95014,-20.18918 -7.95014,-20.18918 l -1.04514,-20.46263 c -2.92965,-1.32194 -5.916337,-2.72385 -7.394857,-3.5794 -3.46312,-2.0064 -11.22539,-38.05659 -7.21872,-47.28387 2.659,-6.13436 8.16266,-8.28223 11.548597,-9.03491 l -3.662207,-71.74528 0.33665,-0.33889 c 0,0 -0.9426,-12.20357 2.28322,-16.91453 3.225797,-4.71096 15.050857,-8.30348 15.050857,-8.30348 l 12.00378,-16.1188 c 0,0 15.33692,-15.55712 23.37567,-18.01055 8.03876,-2.45344 20.8766,1.3387 20.8766,1.3387 l 57.43206,21.56314 c 0,0 17.63173,3.93519 27.20585,9.95013 9.57414,6.01493 22.82848,33.06554 22.82848,33.06554 2.22599,8.45871 -7.36459,67.30903 -7.36459,67.30903 2.54045,1.37619 5.10997,3.60738 6.6858,7.2399 4.01002,9.22728 -3.75278,45.27747 -7.21703,47.28387 -1.75644,1.0127 -3.99823,2.98643 -9.3112,6.00831 l -14.42305,34.80109 0.006,45.53906 101.06138,34.59708 c 0,0 12.46557,2.22597 21.36955,24.48572 8.90395,22.25976 20.47912,58.32056 20.47912,58.32056 L -25.901607,720 c 0,0 8.45878,-64.99849 25.37634,-76.12836 16.91754,-11.12988 112.785507,-42.88033 112.785507,-42.88033 z"
     style="fill:#808080;stroke:none;stroke-width:1"
     sodipodi:nodetypes="cccccccccczcczcczccccccccsccsc" /><path
     inkscape:connector-curvature="0"
     id="path13-3-6"
     d="m 578.00222,612.9677 -0.45767,-35.79086 c 0.0795,-0.35304 0.15693,-0.70156 0.23135,-1.04456 3.64219,-9.09029 7.15007,-18.15744 7.15007,-18.15744 l 0.93997,-18.40339 c 2.63483,-1.18891 5.32095,-2.44973 6.65068,-3.21919 3.11462,-1.80448 10.09573,-34.22678 6.49228,-42.52547 -2.39142,-5.51704 -7.34122,-7.44876 -10.38642,-8.12569 l 3.29367,-64.52522 -0.30277,-0.30479 c 0,0 0.84774,-10.97547 -2.05345,-15.21234 -2.90118,-4.23688 -13.53623,-7.46786 -13.53623,-7.46786 l -10.79578,-14.4967 c 0,0 -13.7935,-13.99154 -21.02328,-16.19806 -7.22978,-2.20654 -18.77569,1.20397 -18.77569,1.20397 l -51.6524,19.39315 c 0,0 -15.85737,3.53918 -24.46801,8.9488 -8.61064,5.40961 -20.53114,29.738 -20.53114,29.738 -2.00198,7.60748 6.62346,60.53542 6.62346,60.53542 -2.28479,1.23769 -4.59573,3.24436 -6.01298,6.51132 -3.60648,8.29869 3.37512,40.72099 6.49075,42.52547 1.57969,0.9108 3.59588,2.68589 8.37417,5.40367 l 12.97159,31.29889 -0.005,40.95626 -90.89109,31.11541 c 0,0 -11.21111,2.00197 -19.21904,22.02162 -8.00824,20.01966 -18.41855,52.45149 -18.41855,52.45149 L 702.26104,720 c 0,0 -7.60754,-58.45739 -22.8226,-68.46722 C 664.22339,641.52296 578.00305,612.9677 578.00305,612.9677 Z"
     style="fill:#999999;stroke:none;stroke-width:1"
     sodipodi:nodetypes="cccccccccczcczcczccccccccsccsc" /><path
     inkscape:connector-curvature="0"
     id="path13"
     d="m 434.01988,580.9424 -0.5946,-46.4999 c 0.10325,-0.45868 0.20387,-0.91148 0.30057,-1.35711 4.73197,-11.81021 9.28947,-23.59037 9.28947,-23.59037 l 1.22122,-23.90988 c 3.42319,-1.54464 6.91303,-3.18272 8.64064,-4.18241 4.04654,-2.34441 13.11647,-44.46782 8.43482,-55.24958 -3.10695,-7.16781 -9.53778,-9.67752 -13.49414,-10.55699 l 4.27916,-83.83193 -0.39336,-0.39597 c 0,0 1.1014,-14.25946 -2.66786,-19.76406 -3.76924,-5.50459 -17.58642,-9.70233 -17.58642,-9.70233 l -14.026,-18.83427 c 0,0 -17.92067,-18.17797 -27.31369,-21.04472 -9.39301,-2.86676 -24.39359,1.56424 -24.39359,1.56424 l -67.10741,25.19578 c 0,0 -20.60208,4.59815 -31.78912,11.62639 -11.18705,7.02825 -26.67429,38.63595 -26.67429,38.63595 -2.601,9.88372 8.60527,78.64833 8.60527,78.64833 -2.96842,1.60802 -5.97083,4.2151 -7.81213,8.45958 -4.68558,10.78176 4.385,52.90517 8.43286,55.24958 2.05234,1.18331 4.6718,3.48953 10.87981,7.02051 l 16.85284,40.66387 -0.007,53.21086 -118.08678,40.4255 c 0,0 -14.5656,2.60098 -24.96959,28.61074 -10.4044,26.00977 -23.92959,68.14559 -23.92959,68.14559 L 595.45729,720 c 0,0 -9.8838,-75.94852 -29.65139,-88.9534 -19.76757,-13.00489 -131.78603,-50.1042 -131.78603,-50.1042 z"
     style="fill:#666666;stroke:none;stroke-width:1"
     sodipodi:nodetypes="cccccccccczcczcczccccccccsccsc" /></svg>
