<?xml version="1.0" encoding="UTF-8" standalone="no"?>
<!-- Generator: Adobe Illustrator 19.1.1, SVG Export Plug-In . SVG Version: 6.00 Build 0)  -->

<svg
   xmlns:dc="http://purl.org/dc/elements/1.1/"
   xmlns:cc="http://creativecommons.org/ns#"
   xmlns:rdf="http://www.w3.org/1999/02/22-rdf-syntax-ns#"
   xmlns:svg="http://www.w3.org/2000/svg"
   xmlns="http://www.w3.org/2000/svg"
   xmlns:sodipodi="http://sodipodi.sourceforge.net/DTD/sodipodi-0.dtd"
   xmlns:inkscape="http://www.inkscape.org/namespaces/inkscape"
   version="1.1"
   x="0px"
   y="0px"
   viewBox="0 0 719.99999 720"
   xml:space="preserve"
   id="svg2"
   inkscape:version="0.91 r13725"
   sodipodi:docname="tutorial.svg"
   width="720"
   height="720"
   inkscape:export-filename="/home/martin/Projekte/GitHub/Scribus/scribus-webpage/mockup/raw/tutorial.png"
   inkscape:export-xdpi="90"
   inkscape:export-ydpi="90"><metadata
     id="metadata38"><rdf:RDF><cc:Work
         rdf:about=""><dc:format>image/svg+xml</dc:format><dc:type
           rdf:resource="http://purl.org/dc/dcmitype/StillImage" /><dc:title /></cc:Work></rdf:RDF></metadata><defs
     id="defs36" /><sodipodi:namedview
     pagecolor="#ffffff"
     bordercolor="#666666"
     borderopacity="1"
     objecttolerance="10"
     gridtolerance="10"
     guidetolerance="10"
     inkscape:pageopacity="0"
     inkscape:pageshadow="2"
     inkscape:window-width="1920"
     inkscape:window-height="973"
     id="namedview34"
     showgrid="false"
     inkscape:zoom="0.62803372"
     inkscape:cx="379.4861"
     inkscape:cy="431.59522"
     inkscape:window-x="1920"
     inkscape:window-y="30"
     inkscape:window-maximized="1"
     inkscape:current-layer="svg2" /><rect
     style="opacity:1;fill:#c8b7b7;fill-opacity:1;stroke:none;stroke-width:1;stroke-linecap:square;stroke-linejoin:miter;stroke-miterlimit:1.89999998;stroke-dasharray:none;stroke-dashoffset:0;stroke-opacity:1"
     id="rect4182"
     width="720"
     height="720"
     x="0"
     y="-7.1054274e-15" /><path
     style="fill:none;fill-rule:evenodd;stroke:#e3dbdb;stroke-width:4;stroke-linecap:butt;stroke-linejoin:miter;stroke-miterlimit:4;stroke-dasharray:4, 4;stroke-dashoffset:0;stroke-opacity:1"
     d="m 568.44083,-28.367464 0,780.212894"
     id="path4214"
     inkscape:connector-curvature="0" /><g
     id="g5"
     style="display:none"
     transform="translate(0,-31.552002)"><polygon
       id="polygon7"
       points="336.037,169.268 328.41,181.425 330.63,234.553 335.668,233.122 340.469,201.569 345.771,201.569 347.707,191.998 348.174,189.029 351.451,186.293 356.264,184.923 353.444,171.721 370.081,180.481 365.642,166.166 374.525,173.572 375.348,159.75 387.242,172.419 392.905,162.877 407.763,171.432 427.37,185.818 439.333,193.901 440.038,219.2 441.266,236.141 443.792,186.733 429.902,162.857 392.25,141.69 388.149,148.349 369.103,138.992 368.439,151.523 358.332,142.059 355.414,152.394 339.311,142.059 "
       style="display:inline;fill:#676766" /><polygon
       id="polygon9"
       points="350.582,185.503 347.31,188.241 345.771,201.569 347.699,198.871 350.27,189.674 357.65,186.636 356.264,179.166 372.845,186.201 372.652,174.627 397.045,180.124 399.664,173.077 403.646,178.178 405.592,172.914 412.039,179.344 427.37,185.818 439.333,193.901 424.26,181 409.833,170.126 391.635,159.914 386.853,170.944 374.198,157.119 372.6,170.674 363.336,162.779 367.99,176.194 351.355,167.433 355.4,184.136 "
       style="display:inline;fill:#676766" /></g><g
     id="Ebene_1"
     transform="translate(0,-31.552002)" /><path
     style="fill:none;fill-rule:evenodd;stroke:#e3dbdb;stroke-width:4;stroke-linecap:butt;stroke-linejoin:miter;stroke-miterlimit:4;stroke-dasharray:4, 4;stroke-dashoffset:0;stroke-opacity:1"
     d="m 738.81385,414.28393 -780.212903,0"
     id="path4214-3"
     inkscape:connector-curvature="0" /><g
     id="g4197"
     transform="translate(105.034,116.39014)"><rect
       y="122.14405"
       x="141.30116"
       height="176.6266"
       width="323.1662"
       id="rect4143-3"
       style="opacity:1;fill:none;fill-opacity:1;stroke:#e3dbdb;stroke-width:4;stroke-linecap:square;stroke-linejoin:miter;stroke-miterlimit:4;stroke-dasharray:none;stroke-dashoffset:0;stroke-opacity:1" /><rect
       y="108.88499"
       x="128.35326"
       height="27.021738"
       width="25.895832"
       id="rect4143"
       style="opacity:1;fill:#c8b7b7;fill-opacity:1;stroke:#e3dbdb;stroke-width:4;stroke-linecap:square;stroke-linejoin:miter;stroke-miterlimit:4;stroke-dasharray:none;stroke-dashoffset:0;stroke-opacity:1" /><rect
       y="285.82339"
       x="128.91621"
       height="27.021738"
       width="25.895832"
       id="rect4143-6"
       style="opacity:1;fill:#c8b7b7;fill-opacity:1;stroke:#e3dbdb;stroke-width:4;stroke-linecap:square;stroke-linejoin:miter;stroke-miterlimit:4;stroke-dasharray:none;stroke-dashoffset:0;stroke-opacity:1" /><rect
       y="285.82339"
       x="451.91858"
       height="27.021738"
       width="25.895832"
       id="rect4143-7"
       style="opacity:1;fill:#c8b7b7;fill-opacity:1;stroke:#e3dbdb;stroke-width:4;stroke-linecap:square;stroke-linejoin:miter;stroke-miterlimit:4;stroke-dasharray:none;stroke-dashoffset:0;stroke-opacity:1" /><rect
       y="109.50726"
       x="451.91858"
       height="27.021738"
       width="25.895832"
       id="rect4143-5"
       style="opacity:1;fill:#c8b7b7;fill-opacity:1;stroke:#e3dbdb;stroke-width:4;stroke-linecap:square;stroke-linejoin:miter;stroke-miterlimit:4;stroke-dasharray:none;stroke-dashoffset:0;stroke-opacity:1" /><flowRoot
       style="font-style:normal;font-weight:normal;font-size:40px;line-height:125%;font-family:sans-serif;letter-spacing:0px;word-spacing:0px;fill:#000000;fill-opacity:1;stroke:none;stroke-width:1px;stroke-linecap:butt;stroke-linejoin:miter;stroke-opacity:1"
       id="flowRoot4187"
       xml:space="preserve"><flowRegion
         id="flowRegion4189"><rect
           y="153.6694"
           x="164.38225"
           height="134.4023"
           width="300.17792"
           id="rect4191" /></flowRegion><flowPara
         style="fill:#e3dbdb"
         id="flowPara4193">Learn how to do things.</flowPara></flowRoot></g><path
     style="fill:#e3dbdb;fill-rule:evenodd;stroke:none;stroke-width:1px;stroke-linecap:butt;stroke-linejoin:miter;stroke-opacity:1"
     d="m 568.12312,416.43298 29.27355,59.67301 13.51087,-15.76268 23.64402,23.64402 9.00724,-12.38497 -23.64402,-21.39221 14.63678,-15.76268 z"
     id="path4195"
     inkscape:connector-curvature="0" /><path
     inkscape:connector-curvature="0"
     id="path13"
     d="m 320.39988,580.9424 -0.5946,-46.4999 c 0.1032,-0.45868 0.2038,-0.91148 0.3005,-1.35711 4.732,-11.81021 9.2895,-23.59037 9.2895,-23.59037 l 1.2212,-23.90988 c 3.4232,-1.54464 6.9131,-3.18272 8.6407,-4.18241 4.0465,-2.34441 13.1164,-44.46782 8.4348,-55.24958 -3.107,-7.16781 -9.5378,-9.67752 -13.4941,-10.55699 l 4.2791,-83.83193 -0.3933,-0.39597 c 0,0 1.1014,-14.25946 -2.6679,-19.76406 -3.7692,-5.50459 -17.5864,-9.70233 -17.5864,-9.70233 l -14.026,-18.83427 c 0,0 -17.9207,-18.17797 -27.3137,-21.04472 -9.393,-2.86676 -24.3936,1.56424 -24.3936,1.56424 l -67.1075,25.19578 c 0,0 -20.602,4.59815 -31.7891,11.62639 -11.187,7.02825 -26.67426,38.63595 -26.67426,38.63595 -2.601,9.88372 8.60527,78.64833 8.60527,78.64833 -2.96842,1.60802 -5.97083,4.2151 -7.81213,8.45958 -4.68558,10.78176 4.385,52.90517 8.43286,55.24958 2.05234,1.18331 4.67176,3.48953 10.87976,7.02051 l 16.8529,40.66387 -0.01,53.21086 -118.086779,40.4255 c 0,0 -14.5656,2.60098 -24.96959,28.61074 -10.4044,26.00977 -23.92959,68.14559 -23.92959,68.14559 L 481.83428,720 c 0,0 -9.8838,-75.94852 -29.6514,-88.9534 -19.7676,-13.00489 -131.786,-50.1042 -131.786,-50.1042 z"
     style="fill:#666666;stroke:none;stroke-width:1"
     sodipodi:nodetypes="cccccccccczcczcczccccccccsccsc" /><flowRoot
     xml:space="preserve"
     id="flowRoot4231"
     style="font-style:normal;font-weight:normal;font-size:80px;line-height:125%;font-family:sans-serif;letter-spacing:0px;word-spacing:0px;fill:#e3dbdb;fill-opacity:1;stroke:none;stroke-width:1px;stroke-linecap:butt;stroke-linejoin:miter;stroke-opacity:1"
     transform="translate(98.720815,36.622237)"><flowRegion
       id="flowRegion4233"><rect
         id="rect4235"
         width="928.29413"
         height="281.832"
         x="93.944"
         y="68.761078"
         style="font-size:80px;fill:#e3dbdb" /></flowRegion><flowPara
       id="flowPara4237"
       style="font-style:normal;font-variant:normal;font-weight:normal;font-stretch:normal;font-size:80px;font-family:roboto;-inkscape-font-specification:roboto;fill:#e3dbdb">HEADLINE</flowPara></flowRoot></svg>