<?xml version="1.0" encoding="UTF-8" standalone="no"?>
<svg
   xmlns:dc="http://purl.org/dc/elements/1.1/"
   xmlns:cc="http://creativecommons.org/ns#"
   xmlns:rdf="http://www.w3.org/1999/02/22-rdf-syntax-ns#"
   xmlns:svg="http://www.w3.org/2000/svg"
   xmlns="http://www.w3.org/2000/svg"
   xmlns:xlink="http://www.w3.org/1999/xlink"
   xmlns:sodipodi="http://sodipodi.sourceforge.net/DTD/sodipodi-0.dtd"
   xmlns:inkscape="http://www.inkscape.org/namespaces/inkscape"
   version="1.1"
   x="0px"
   y="0px"
   viewBox="0 0 719.99999 720"
   xml:space="preserve"
   id="svg2"
   inkscape:version="0.91 r13725"
   sodipodi:docname="wiki.svg"
   width="720"
   height="720"
   inkscape:export-filename="/home/martin/Projekte/GitHub/Scribus/scribus-webpage/mockup/raw/wiki.png"
   inkscape:export-xdpi="90"
   inkscape:export-ydpi="90"><metadata
     id="metadata38"><rdf:RDF><cc:Work
         rdf:about=""><dc:format>image/svg+xml</dc:format><dc:type
           rdf:resource="http://purl.org/dc/dcmitype/StillImage" /><dc:title></dc:title></cc:Work></rdf:RDF></metadata><defs
     id="defs36"><linearGradient
       id="linearGradient624"><stop
         offset="0"
         style="stop-color:#b9e5ff;stop-opacity:0.41964301"
         id="stop625" /><stop
         offset="1"
         style="stop-color:#ffffff;stop-opacity:1"
         id="stop626" /></linearGradient><linearGradient
       id="linearGradient619"><stop
         offset="0"
         style="stop-color:#66b8ff;stop-opacity:1"
         id="stop620" /><stop
         offset="1"
         style="stop-color:#00507a;stop-opacity:1"
         id="stop621" /></linearGradient><linearGradient
       id="linearGradient593"><stop
         offset="0"
         style="stop-color:#fff9db;stop-opacity:0.73214298"
         id="stop594" /><stop
         offset="1"
         style="stop-color:#2c2c2c;stop-opacity:1"
         id="stop595" /></linearGradient><linearGradient
       id="linearGradient578"><stop
         offset="0"
         style="stop-color:#fff2bc;stop-opacity:1"
         id="stop579" /><stop
         offset="1"
         style="stop-color:#83560b;stop-opacity:1"
         id="stop580" /></linearGradient><linearGradient
       xlink:href="#linearGradient578"
       id="linearGradient581"
       y2="279.76099"
       x2="656.45555"
       y1="231.00583"
       x1="596.05675"
       gradientTransform="matrix(0.80329146,0,0,1.2448782,-30.243027,12.666447)"
       gradientUnits="userSpaceOnUse" /><linearGradient
       xlink:href="#linearGradient593"
       id="linearGradient590"
       y2="264.66051"
       x2="908.4478"
       y1="160.6253"
       x1="779.71681"
       gradientTransform="matrix(0.74212107,0,0,1.347489,-30.243027,12.666447)"
       gradientUnits="userSpaceOnUse" /><linearGradient
       xlink:href="#linearGradient624"
       id="linearGradient623"
       y2="425.86215"
       x2="411.61445"
       y1="74.221018"
       x1="273.65717"
       gradientTransform="matrix(0.71650779,0,0,1.3956582,-30.243027,12.666447)"
       gradientUnits="userSpaceOnUse" /><linearGradient
       xlink:href="#linearGradient619"
       id="linearGradient664"
       y2="598.45589"
       x2="332.64537"
       y1="-72.169078"
       x1="34.350778"
       gradientUnits="userSpaceOnUse"
       gradientTransform="matrix(0.832278,0,0,0.846654,41.409963,179.15695)" /></defs><sodipodi:namedview
     pagecolor="#ffffff"
     bordercolor="#666666"
     borderopacity="1"
     objecttolerance="10"
     gridtolerance="10"
     guidetolerance="10"
     inkscape:pageopacity="0"
     inkscape:pageshadow="2"
     inkscape:window-width="1920"
     inkscape:window-height="973"
     id="namedview34"
     showgrid="false"
     inkscape:zoom="0.73067701"
     inkscape:cx="380.0934"
     inkscape:cy="339.57141"
     inkscape:window-x="1920"
     inkscape:window-y="30"
     inkscape:window-maximized="1"
     inkscape:current-layer="svg2"
     showguides="true"
     inkscape:guide-bbox="true" /><rect
     style="opacity:1;fill:#b7bec8;fill-opacity:1;stroke:none;stroke-width:1;stroke-linecap:square;stroke-linejoin:miter;stroke-miterlimit:1.89999998;stroke-dasharray:none;stroke-dashoffset:0;stroke-opacity:1"
     id="rect4182"
     width="720"
     height="720"
     x="0"
     y="-0.68429691" /><g
     id="g5"
     style="display:none"
     transform="translate(0,-31.552002)"><polygon
       id="polygon7"
       points="336.037,169.268 328.41,181.425 330.63,234.553 335.668,233.122 340.469,201.569 345.771,201.569 347.707,191.998 348.174,189.029 351.451,186.293 356.264,184.923 353.444,171.721 370.081,180.481 365.642,166.166 374.525,173.572 375.348,159.75 387.242,172.419 392.905,162.877 407.763,171.432 427.37,185.818 439.333,193.901 440.038,219.2 441.266,236.141 443.792,186.733 429.902,162.857 392.25,141.69 388.149,148.349 369.103,138.992 368.439,151.523 358.332,142.059 355.414,152.394 339.311,142.059 "
       style="display:inline;fill:#676766" /><polygon
       id="polygon9"
       points="350.582,185.503 347.31,188.241 345.771,201.569 347.699,198.871 350.27,189.674 357.65,186.636 356.264,179.166 372.845,186.201 372.652,174.627 397.045,180.124 399.664,173.077 403.646,178.178 405.592,172.914 412.039,179.344 427.37,185.818 439.333,193.901 424.26,181 409.833,170.126 391.635,159.914 386.853,170.944 374.198,157.119 372.6,170.674 363.336,162.779 367.99,176.194 351.355,167.433 355.4,184.136 "
       style="display:inline;fill:#676766" /></g><g
     id="Ebene_1"
     transform="translate(0,-31.552002)" /><g
     inkscape:groupmode="layer"
     id="layer2"
     inkscape:label="Layer 2" /><g
     inkscape:groupmode="layer"
     id="layer3"
     inkscape:label="Layer 1"
     style="display:none"><g
       id="g4203"
       transform="matrix(1.1635926,0,0,1.1635926,-42.259585,-63.919749)"><path
         sodipodi:nodetypes="ccscsc"
         inkscape:connector-curvature="0"
         id="path4197"
         d="m 539.30885,457.66396 5.62953,52.91757 c 0,0 0,12.38497 -12.38496,14.63678 -12.38496,2.25181 -305.12046,36.02898 -305.12046,36.02898 0,0 -13.38014,2.74354 -15.63195,-26.53001 -2.25181,-29.27355 327.50784,-77.05332 327.50784,-77.05332 z"
         style="fill:#939dac;fill-rule:evenodd;stroke:none;stroke-width:1px;stroke-linecap:butt;stroke-linejoin:miter;stroke-opacity:1" /><path
         sodipodi:nodetypes="ccccc"
         inkscape:connector-curvature="0"
         id="path4199"
         d="m 544.93839,483.55979 c 0,0 -15.03485,15.0114 -14.23871,33.32252 l -305.51853,37.60954 c -4.37875,-21.89373 0,-29.27355 0,-29.27355 z"
         style="fill:#dbdee3;fill-rule:evenodd;stroke:none;stroke-width:1px;stroke-linecap:butt;stroke-linejoin:miter;stroke-opacity:1" /><path
         inkscape:connector-curvature="0"
         id="path4193"
         d="m 220.67753,173.9357 234.1884,-21.3922 c 0,0 18.01449,-1.12591 21.39221,13.51086 3.37772,14.63678 81.06521,315.25362 81.06521,315.25362 0,0 2.25181,10.13315 -13.51087,13.51087 -15.76268,3.37771 -254.4547,31.52536 -254.4547,31.52536 z"
         style="fill:#939dac;fill-rule:evenodd;stroke:none;stroke-width:1px;stroke-linecap:butt;stroke-linejoin:miter;stroke-opacity:1" /><path
         sodipodi:nodetypes="ccsscsscc"
         inkscape:connector-curvature="0"
         id="path4195"
         d="m 220.67753,173.9357 -54.74717,5.06658 c -6.33322,0.42222 -11.68127,9.5702 -11.68127,25.33288 0,13.79515 46.56808,279.40285 58.19354,345.49544 1.65809,9.42646 12.35803,11.31131 12.35803,11.31131 0,0 -5.1755,-1.23069 -7.34048,-8.03681 -2.28195,-7.17384 -0.36767,-19.25988 7.72097,-19.83764 15.76268,-1.1259 64.20785,-6.98569 64.20785,-6.98569 z"
         style="fill:#6f7c91;fill-rule:evenodd;stroke:none;stroke-width:1px;stroke-linecap:butt;stroke-linejoin:miter;stroke-opacity:1" /><g
         style="fill:#dbdee3"
         transform="matrix(0.98794483,-0.09351834,0.25317437,0.98823692,560.95179,181.19942)"
         id="g4171"><flowRoot
           xml:space="preserve"
           id="flowRoot4478"
           style="font-style:normal;font-weight:normal;font-size:40px;line-height:125%;font-family:sans-serif;letter-spacing:0px;word-spacing:0px;fill:#dbdee3;fill-opacity:1;stroke:none;stroke-width:1px;stroke-linecap:butt;stroke-linejoin:miter;stroke-opacity:1"
           transform="translate(-533.51642,-170.28488)"><flowRegion
             id="flowRegion4480"><rect
               id="rect4482"
               width="281.47644"
               height="132.85687"
               x="204.91484"
               y="145.78807"
               style="fill:#dbdee3;stroke:none" /></flowRegion><flowPara
             id="flowPara4484"
             style="font-style:normal;font-variant:normal;font-weight:normal;font-stretch:normal;font-size:70px;font-family:'Open Sans';-inkscape-font-specification:'Open Sans';fill:#dbdee3;stroke:none">Scribus</flowPara></flowRoot><flowRoot
           xml:space="preserve"
           id="flowRoot4478-3"
           style="font-style:normal;font-weight:normal;font-size:20px;line-height:125%;font-family:sans-serif;letter-spacing:0px;word-spacing:0px;fill:#dbdee3;fill-opacity:1;stroke:none;stroke-width:1px;stroke-linecap:butt;stroke-linejoin:miter;stroke-opacity:1"
           transform="translate(-430.30356,-88.860348)"><flowRegion
             id="flowRegion4480-5"><rect
               id="rect4482-6"
               width="281.47644"
               height="132.85687"
               x="204.91484"
               y="145.78807"
               style="font-size:20px;fill:#dbdee3;stroke:none" /></flowRegion><flowPara
             id="flowPara4484-2"
             style="font-style:normal;font-variant:normal;font-weight:normal;font-stretch:normal;font-size:20px;font-family:'Open Sans';-inkscape-font-specification:'Open Sans';fill:#dbdee3;stroke:none">User's Manual</flowPara></flowRoot><path
           style="fill:#dbdee3;fill-rule:evenodd;stroke:#dbdee3;stroke-width:4;stroke-linecap:butt;stroke-linejoin:miter;stroke-miterlimit:4;stroke-dasharray:none;stroke-opacity:1"
           d="m -326.23957,54.316582 233.062504,0"
           id="path4512"
           inkscape:connector-curvature="0" /></g><g
         transform="matrix(0.26901051,0,0.02258944,0.26901051,294.18022,285.47355)"
         id="g4469"><path
           inkscape:connector-curvature="0"
           d="m 639.87999,401.36868 a 316.07102,323.32635 0 0 1 -632.1420395,0 316.07102,323.32635 0 1 1 632.1420395,0 z"
           id="path653"
           style="font-size:12px;fill:#b7bec8;fill-opacity:1;fill-rule:evenodd;stroke:#4d4d4d;stroke-width:13.26275349;stroke-dasharray:none;stroke-opacity:1" /><path
           inkscape:connector-curvature="0"
           d="M 665.26564,209.18993 A 96.388107,55.450687 36.353492 1 1 518.37778,85.607007 96.388107,55.450687 36.353492 1 1 665.26564,209.18993 Z"
           id="path686"
           style="font-size:12px;fill:#4d4d4d;fill-opacity:1;fill-rule:evenodd;stroke:#4d4d4d;stroke-width:0.69944639pt" /><path
           inkscape:connector-curvature="0"
           d="m 283.78313,645.77549 c 0,0 -86.23998,-136.49165 -19.30338,-274.3994 C 317.67817,260.51898 334.18909,158.45124 290.91973,86.236255 214.0743,95.815234 147.17831,135.08805 114.03351,168.62499 63.827699,217.55191 39.804424,268.84552 28.926261,304.70197 43.430478,481.51134 284.99181,649.48478 283.78313,645.77549 Z"
           id="path622"
           style="font-size:12px;fill:#dbdee3;fill-opacity:0.75;fill-rule:evenodd;stroke:#e2e3db;stroke-width:0.977983pt;stroke-opacity:0.39285697" /><path
           inkscape:connector-curvature="0"
           d="m 305.84773,652.54115 c -2.29032,-2.13985 112.72118,-172.66728 253.30961,-195.82268 0.43209,-183.81859 84.95092,-251.43702 90.30085,-262.94587 -11.29612,-61.06669 -44.46264,-84.13105 -74.39758,-88.98935 -50.73731,-6.466231 -41.21456,16.29719 -47.44843,22.3581 -34.33262,77.53156 -106.23492,186.98119 -116.38371,206.55202 -28.55579,39.56956 -89.0282,234.86184 -113.21608,318.46024 l 7.83534,0.38754 z"
           id="hrot"
           style="font-size:12px;fill:#dbdee3;fill-rule:evenodd;stroke:#4d4d4d;stroke-width:5.63506985" /><path
           inkscape:connector-curvature="0"
           d="m 425.31204,370.65832 a 8.6789852,24.938329 30.602209 0 1 -14.44645,-9.66526 8.6789852,24.938329 30.602209 1 1 14.44645,9.66526 z"
           id="path583"
           style="font-size:12px;fill:#b7bec8;fill-rule:evenodd;stroke-width:1.25097001" /><path
           inkscape:connector-curvature="0"
           d="m 407.67622,385.90275 -2.2523,-1.69167 c -2.59063,-1.94576 -89.45496,226.06339 -102.85956,266.91313 13.32139,-43.07345 91.7047,-247.25098 105.11186,-265.22146 z"
           id="path585"
           style="font-size:12px;fill:#b7bec8;fill-rule:evenodd;stroke:#b7bec8;stroke-width:1.73912001" /><path
           inkscape:connector-curvature="0"
           d="m 456.40556,462.75111 c 30.49706,-23.97635 43.93824,-43.48925 74.13311,-49.43597 -5.21641,-74.96907 52.40446,-165.49775 99.24338,-250.14813 l -8.43467,-15.22022 C 601.97202,177.29183 486.82659,388.14222 456.40556,462.75111 Z"
           id="path589"
           style="font-size:12px;fill:#b7bec8;fill-rule:evenodd;stroke-width:1pt" /></g></g></g><g
     id="g4395"
     transform="translate(0.61113478,0)" /><g
     id="g4463"
     transform="matrix(1.5240455,0,0,1.5240455,-188.30113,-132.33237)"><flowRoot
       xml:space="preserve"
       id="flowRoot4363"
       style="font-style:normal;font-weight:normal;font-size:350px;line-height:125%;font-family:sans-serif;letter-spacing:0px;word-spacing:0px;fill:#535d6c;fill-opacity:1;stroke:none;stroke-width:1px;stroke-linecap:butt;stroke-linejoin:miter;stroke-opacity:1"
       transform="translate(43.037542,-15.054531)"><flowRegion
         id="flowRegion4365"><rect
           id="rect4367"
           width="470.79623"
           height="421.52689"
           x="136.85938"
           y="132.87328"
           style="font-size:350px;fill:#535d6c" /></flowRegion><flowPara
         id="flowPara4369"
         style="font-style:normal;font-variant:normal;font-weight:normal;font-stretch:normal;font-size:350px;font-family:serif;-inkscape-font-specification:serif;fill:#535d6c">V</flowPara></flowRoot><flowRoot
       xml:space="preserve"
       id="flowRoot4363-1"
       style="font-style:normal;font-weight:normal;font-size:350px;line-height:125%;font-family:sans-serif;letter-spacing:0px;word-spacing:0px;fill:#535d6c;fill-opacity:1;stroke:none;stroke-width:1px;stroke-linecap:butt;stroke-linejoin:miter;stroke-opacity:1"
       transform="translate(142.77593,-15.054531)"><flowRegion
         id="flowRegion4365-0"><rect
           id="rect4367-0"
           width="470.79623"
           height="421.52689"
           x="136.85938"
           y="132.87328"
           style="font-size:350px;fill:#535d6c" /></flowRegion><flowPara
         id="flowPara4369-6"
         style="font-style:normal;font-variant:normal;font-weight:normal;font-stretch:normal;font-size:350px;font-family:serif;-inkscape-font-specification:serif;fill:#535d6c">V</flowPara></flowRoot><rect
       y="179.40546"
       x="157.38829"
       height="35.583439"
       width="412.63101"
       id="rect4405"
       style="opacity:1;fill:#b7bec8;fill-opacity:1;fill-rule:nonzero;stroke:none;stroke-width:1;stroke-linecap:square;stroke-linejoin:miter;stroke-miterlimit:4;stroke-dasharray:none;stroke-dashoffset:0;stroke-opacity:1" /><rect
       y="202.67155"
       x="357.59802"
       height="35.583439"
       width="17.107412"
       id="rect4405-4"
       style="opacity:1;fill:#b7bec8;fill-opacity:1;fill-rule:nonzero;stroke:none;stroke-width:1;stroke-linecap:square;stroke-linejoin:miter;stroke-miterlimit:4;stroke-dasharray:none;stroke-dashoffset:0;stroke-opacity:1" /><rect
       y="204.72444"
       x="257.63779"
       height="35.583439"
       width="30.109055"
       id="rect4405-4-3"
       style="opacity:1;fill:#b7bec8;fill-opacity:1;fill-rule:nonzero;stroke:none;stroke-width:1;stroke-linecap:square;stroke-linejoin:miter;stroke-miterlimit:4;stroke-dasharray:none;stroke-dashoffset:0;stroke-opacity:1" /><rect
       y="206.09303"
       x="529.46234"
       height="35.583439"
       width="17.107412"
       id="rect4405-4-7"
       style="opacity:1;fill:#b7bec8;fill-opacity:1;fill-rule:nonzero;stroke:none;stroke-width:1;stroke-linecap:square;stroke-linejoin:miter;stroke-miterlimit:4;stroke-dasharray:none;stroke-dashoffset:0;stroke-opacity:1" /><rect
       y="202.67155"
       x="168.6792"
       height="35.583439"
       width="17.107412"
       id="rect4405-4-34"
       style="opacity:1;fill:#b7bec8;fill-opacity:1;fill-rule:nonzero;stroke:none;stroke-width:1;stroke-linecap:square;stroke-linejoin:miter;stroke-miterlimit:4;stroke-dasharray:none;stroke-dashoffset:0;stroke-opacity:1" /></g></svg>